<?xml version="1.0" encoding="utf-8"?>
<!-- Generator: Adobe Illustrator 19.0.0, SVG Export Plug-In . SVG Version: 6.00 Build 0)  -->
<svg version="1.1" id="Layer_1" xmlns="http://www.w3.org/2000/svg" xmlns:xlink="http://www.w3.org/1999/xlink" x="0px" y="0px"
	 viewBox="127 361.6 866 71.4" style="enable-background:new 127 361.6 866 71.4;" xml:space="preserve">
<style type="text/css">
	.st0{display:none;opacity:5.000000e-02;}
	.st1{display:inline;}
	.st2{display:none;}
	.st3{display:inline;fill:#F7F7F7;}
	.st4{opacity:0.1;}
	.st5{fill:#F7F7F7;}
</style>
<g class="st0">
	<path class="st1" d="M703.4,323.1c0,19.9-14,33.8-33.5,33.8c-19.5,0-33.6-13.9-33.6-33.8c0-18.6,16.1-31.6,33.6-31.6
		C687.3,291.5,703.4,304.5,703.4,323.1z M652.8,323.2c0,10.5,7.7,18.3,17.1,18.3c9.4,0,17.1-7.7,17.1-18.3c0-8.5-7.7-16.2-17.1-16.2
		C660.5,306.9,652.8,314.7,652.8,323.2z M194.9,352.6l-21.2-56.9c-0.4-1.2-1.9-2.2-3.1-2.2H158c-1.3,0-2.7,1-3.2,2.2l-21.7,56.9
		c-0.5,1.2,0.2,2.2,1.5,2.2h12.1c1.3,0,2.7-1,3.2-2.2l3.3-8.5H175l3.1,8.4c0.4,1.2,1.9,2.3,3.1,2.3h12.2
		C194.7,354.9,195.4,353.8,194.9,352.6z M157.6,332l6.5-19.5h0.2l6.4,19.5H157.6z M358.8,352.6l-21.2-56.9c-0.5-1.2-1.9-2.2-3.2-2.2
		h-12.6c-1.2,0-2.7,1-3.2,2.2L297,352.6c-0.4,1.2,0.3,2.2,1.5,2.2h12.1c1.3,0,2.7-1,3.2-2.2l3.3-8.5h21.7l3.2,8.4
		c0.4,1.2,1.8,2.3,3.1,2.3h12.2C358.6,354.9,359.3,353.8,358.8,352.6L358.8,352.6z M321.5,332l6.5-19.5h0.2l6.4,19.5H321.5z
		 M915.3,352.6l-21.2-56.9c-0.5-1.2-1.9-2.2-3.2-2.2h-12.6c-1.2,0-2.7,1-3.2,2.2l-21.6,56.9c-0.5,1.2,0.2,2.2,1.5,2.2h12.1
		c1.2,0,2.7-1,3.2-2.2l3.3-8.5h21.6l3.2,8.4c0.4,1.2,1.8,2.3,3,2.3h12.3C915,354.9,915.7,353.8,915.3,352.6L915.3,352.6z M878,332
		l6.4-19.5h0.2L891,332H878L878,332z M460.1,352.5l-8.5-56.7c-0.2-1.3-1.4-2.3-2.6-2.3h-11.1c-1.3,0-2.7,0.9-3.2,2.2l-12,30.6
		L411,295.7c-0.4-1.2-1.8-2.2-3.1-2.2H397c-1.3,0-2.4,1-2.7,2.3l-9.5,56.7c-0.2,1.3,0.6,2.4,1.9,2.4h11.1c1.2,0,2.5-1.1,2.6-2.4
		l4.9-33h0.2l13,33.2c0.4,1.2,1.9,2.2,3.1,2.2h1.7c1.3,0,2.7-1,3.2-2.2l13.8-33.2h0.1l4.1,33c0.1,1.3,1.3,2.4,2.6,2.4h11.1
		C459.3,354.9,460.2,353.8,460.1,352.5L460.1,352.5z M611,352.5l-8.4-56.7c-0.3-1.3-1.4-2.3-2.8-2.3h-11.1c-1.2,0-2.7,0.9-3.1,2.2
		l-12.2,30.6L562,295.7c-0.5-1.2-1.9-2.2-3.2-2.2h-10.9c-1.2,0-2.5,1-2.7,2.3l-9.5,56.7c-0.2,1.3,0.6,2.4,1.9,2.4h11.1
		c1.3,0,2.5-1.1,2.7-2.4l4.8-33h0.1l12.9,33.2c0.5,1.2,2,2.2,3.2,2.2h1.6c1.4,0,2.7-1,3.2-2.2l13.8-33.2h0.1l4.1,33
		c0.1,1.3,1.4,2.4,2.6,2.4H609C610.3,354.9,611.2,353.8,611,352.5L611,352.5z M766.4,293.5h-37.2c-1.3,0-2.3,1-2.3,2.3v8.9
		c0,1.3,1,2.3,2.3,2.3h10.7v45.5c0,1.3,1.1,2.4,2.3,2.4h11.1c1.4,0,2.4-1.1,2.4-2.4V307h10.7c1.3,0,2.3-1,2.3-2.3v-8.9
		C768.6,294.6,767.7,293.5,766.4,293.5z M832.8,293.5h-37.3c-1.3,0-2.3,1-2.3,2.3v8.9c0,1.3,1,2.3,2.3,2.3h10.6v45.5
		c0,1.3,1.2,2.4,2.3,2.4h11.2c1.3,0,2.3-1.1,2.3-2.4V307h10.8c1.2,0,2.2-1,2.2-2.3v-8.9C835,294.6,834,293.5,832.8,293.5
		L832.8,293.5z M990.7,293.5h-11.1c-1.2,0-2.2,1-2.2,2.3v30c0,7.9-0.6,16.7-10.8,16.7c-10.1,0-10.8-8.7-10.8-16.7v-30
		c0-1.3-1-2.3-2.2-2.3h-11.3c-1.2,0-2.2,1-2.2,2.3V328c0,7.9,0.3,15.7,6.3,21.6c5.1,5.1,13.1,6.8,20.2,6.8c7.1,0,15.1-1.8,20.1-6.8
		c6-5.9,6.3-13.7,6.3-21.6v-32.2C993,294.6,992,293.5,990.7,293.5z M244.7,293.5h-20.1c-1.3,0-2.3,1-2.3,2.3v56.7
		c0,1.3,1.1,2.4,2.3,2.4h20.1c16.8,0,30.8-13.5,30.8-30.7C275.5,306.9,261.6,293.5,244.7,293.5z M241.6,341.3H238V307h3.7
		c10.1,0,17.3,6.2,17.3,17.2C259.1,336.1,251,341.3,241.6,341.3z"/>
</g>
<g class="st2">
	<path class="st3" d="M697.4,317.1c0,19.9-14,33.8-33.5,33.8c-19.5,0-33.6-13.9-33.6-33.8c0-18.6,16.1-31.6,33.6-31.6
		C681.3,285.5,697.4,298.5,697.4,317.1z M646.8,317.2c0,10.5,7.7,18.3,17.1,18.3c9.4,0,17.1-7.7,17.1-18.3c0-8.5-7.7-16.2-17.1-16.2
		C654.5,300.9,646.8,308.7,646.8,317.2z M188.9,346.6l-21.2-56.9c-0.4-1.2-1.9-2.2-3.1-2.2H152c-1.3,0-2.7,1-3.2,2.2l-21.7,56.9
		c-0.5,1.2,0.2,2.2,1.5,2.2h12.1c1.3,0,2.7-1,3.2-2.2l3.3-8.5H169l3.1,8.4c0.4,1.2,1.9,2.3,3.1,2.3h12.2
		C188.7,348.9,189.4,347.8,188.9,346.6z M151.6,326l6.5-19.5h0.2l6.4,19.5H151.6z M352.8,346.6l-21.2-56.9c-0.5-1.2-1.9-2.2-3.2-2.2
		h-12.6c-1.2,0-2.7,1-3.2,2.2L291,346.6c-0.4,1.2,0.3,2.2,1.5,2.2h12.1c1.3,0,2.7-1,3.2-2.2l3.3-8.5h21.7l3.2,8.4
		c0.4,1.2,1.8,2.3,3.1,2.3h12.2C352.6,348.9,353.3,347.8,352.8,346.6L352.8,346.6z M315.5,326l6.5-19.5h0.2l6.4,19.5H315.5z
		 M909.3,346.6l-21.2-56.9c-0.5-1.2-1.9-2.2-3.2-2.2h-12.6c-1.2,0-2.7,1-3.2,2.2l-21.6,56.9c-0.5,1.2,0.2,2.2,1.5,2.2h12.1
		c1.2,0,2.7-1,3.2-2.2l3.3-8.5h21.6l3.2,8.4c0.4,1.2,1.8,2.3,3,2.3h12.3C909,348.9,909.7,347.8,909.3,346.6L909.3,346.6z M872,326
		l6.4-19.5h0.2L885,326H872L872,326z M454.1,346.5l-8.5-56.7c-0.2-1.3-1.4-2.3-2.6-2.3h-11.1c-1.3,0-2.7,0.9-3.2,2.2l-12,30.6
		L405,289.7c-0.4-1.2-1.8-2.2-3.1-2.2H391c-1.3,0-2.4,1-2.7,2.3l-9.5,56.7c-0.2,1.3,0.6,2.4,1.9,2.4h11.1c1.2,0,2.5-1.1,2.6-2.4
		l4.9-33h0.2l13,33.2c0.4,1.2,1.9,2.2,3.1,2.2h1.7c1.3,0,2.7-1,3.2-2.2l13.8-33.2h0.1l4.1,33c0.1,1.3,1.3,2.4,2.6,2.4h11.1
		C453.3,348.9,454.2,347.8,454.1,346.5z M605,346.5l-8.4-56.7c-0.3-1.3-1.4-2.3-2.8-2.3h-11.1c-1.2,0-2.7,0.9-3.1,2.2l-12.2,30.6
		L556,289.7c-0.5-1.2-1.9-2.2-3.2-2.2h-10.9c-1.2,0-2.5,1-2.7,2.3l-9.5,56.7c-0.2,1.3,0.6,2.4,1.9,2.4h11.1c1.3,0,2.5-1.1,2.7-2.4
		l4.8-33h0.1l12.9,33.2c0.5,1.2,2,2.2,3.2,2.2h1.6c1.4,0,2.7-1,3.2-2.2l13.8-33.2h0.1l4.1,33c0.1,1.3,1.4,2.4,2.6,2.4H603
		C604.3,348.9,605.2,347.8,605,346.5L605,346.5z M760.4,287.5h-37.2c-1.3,0-2.3,1-2.3,2.3v8.9c0,1.3,1,2.3,2.3,2.3h10.7v45.5
		c0,1.3,1.1,2.4,2.3,2.4h11.1c1.4,0,2.4-1.1,2.4-2.4V301h10.7c1.3,0,2.3-1,2.3-2.3v-8.9C762.6,288.6,761.7,287.5,760.4,287.5z
		 M826.8,287.5h-37.3c-1.3,0-2.3,1-2.3,2.3v8.9c0,1.3,1,2.3,2.3,2.3h10.6v45.5c0,1.3,1.2,2.4,2.3,2.4h11.2c1.3,0,2.3-1.1,2.3-2.4
		V301h10.8c1.2,0,2.2-1,2.2-2.3v-8.9C829,288.6,828,287.5,826.8,287.5L826.8,287.5z M984.7,287.5h-11.1c-1.2,0-2.2,1-2.2,2.3v30
		c0,7.9-0.6,16.7-10.8,16.7c-10.1,0-10.8-8.7-10.8-16.7v-30c0-1.3-1-2.3-2.2-2.3h-11.3c-1.2,0-2.2,1-2.2,2.3V322
		c0,7.9,0.3,15.7,6.3,21.6c5.1,5.1,13.1,6.8,20.2,6.8c7.1,0,15.1-1.8,20.1-6.8c6-5.9,6.3-13.7,6.3-21.6v-32.2
		C987,288.6,986,287.5,984.7,287.5z M238.7,287.5h-20.1c-1.3,0-2.3,1-2.3,2.3v56.7c0,1.3,1.1,2.4,2.3,2.4h20.1
		c16.8,0,30.8-13.5,30.8-30.7C269.5,300.9,255.6,287.5,238.7,287.5z M235.6,335.3H232V301h3.7c10.1,0,17.3,6.2,17.3,17.2
		C253.1,330.1,245,335.3,235.6,335.3z"/>
</g>
<g class="st4">
	<path d="M142.9,368.6h17.3c0.7,0,1.4,0.4,1.7,1l9.1,15c0.8,1.3,2.7,1.3,3.5,0l8.8-15c0.4-0.6,1-1,1.8-1H202c1.6,0,2.6,1.8,1.7,3.2
		l-17.4,25.3c-0.5,0.7-0.5,1.6,0,2.3l19.2,27.2c1,1.4,0,3.2-1.7,3.2h-17.6c-0.7,0-1.3-0.3-1.7-0.9l-10.7-16.2
		c-0.8-1.2-2.6-1.2-3.4,0L159.7,429c-0.4,0.6-1,0.9-1.7,0.9h-17.6c-1.7,0-2.6-1.9-1.7-3.2l19.5-27.6c0.5-0.7,0.5-1.6,0-2.3l-17.1-25
		C140.3,370.5,141.2,368.6,142.9,368.6z"/>
	<path d="M248,368.6h16.3c1.1,0,2,0.9,2,2v57.2c0,1.1-0.9,2-2,2H248c-1.1,0-2-0.9-2-2v-57.2C245.9,369.5,246.9,368.6,248,368.6z"/>
	<path d="M351.8,419.9h-23l-3.3,10h-20.8l24.5-61.3H351l24.5,61.3h-21.2L351.8,419.9z M347.7,406.5l-7.1-21.9l-7.1,21.9H347.7z"/>
	<path d="M410.8,399.4c0-10,3-17.8,8.9-23.4c5.9-5.6,14.1-8.2,24.9-8.2s19.3,2.6,25.2,8.2c5.9,5.6,8.9,13,8.9,23
		c0,7.1-1.1,13-3.7,17.5c-2.6,4.5-6.3,8.2-11.1,10.8c-4.8,2.6-10.8,3.7-18.2,3.7c-7.4,0-13.4-1.1-18.2-3.3
		c-4.8-2.2-8.9-5.6-11.9-10.4C412.3,412.4,410.8,406.5,410.8,399.4z M430.8,399.4c0,6.3,1.1,10.8,3.7,13.4c2.6,2.6,5.9,4.1,10,4.1
		c4.5,0,7.8-1.5,10-4.1c2.2-2.6,3.7-7.4,3.7-14.1c0-5.9-1.1-10-3.7-12.6c-2.6-2.6-5.9-4.1-10-4.1c-4.1,0-7.4,1.5-9.7,4.1
		C432,388.7,430.8,393.1,430.8,399.4z"/>
	<path d="M545.9,368.6h22.3l11.5,18.9l11.1-18.9h18c1.6,0,2.6,1.8,1.7,3.2l-18.2,26.5l22.3,31.6H592l-13-19.7l-13,19.7h-22.6
		L566,398L545.9,368.6z"/>
	<path d="M652.9,368.6h20.4v61.3h-20.4V368.6z"/>
	<path d="M718.6,368.6h18.9l24.5,33.8v-33.8H781v61.3H762l-24.5-33.4v33.4h-18.9V368.6z"/>
	<path d="M818.5,368.6h22.6l13.4,20.8l13.4-20.8h22.3l-25.6,35.6v25.6h-20.4v-25.6L818.5,368.6z"/>
	<path d="M941.4,368.6h-8.2c-1.5,0-3,0.7-4.1,1.9s-1.9,3-1.9,4.8v4.1c0,3.7,2.6,6.7,5.9,6.7h8.2c3.3,0,5.9-3,5.9-6.7v-4.1
		C947.3,371.6,944.3,368.6,941.4,368.6z"/>
	<path d="M969.6,375.3v4.1c0,3.7,2.6,6.7,5.9,6.7h8.2c3.3,0,5.9-3,5.9-6.7v-4.5c0-3.7-2.6-6.7-5.9-6.7h-8.2
		C972.2,368.6,969.6,371.6,969.6,375.3z"/>
	<path d="M969.6,406.1c0,3.3-1.1,5.9-3,7.8c-1.9,1.9-4.8,2.6-8.2,2.6c-3.3,0-6.3-1.1-8.2-3c-1.9-1.9-3-4.5-3-7.8v-2.2
		c0-4.1-3.3-7.4-7.8-7.4H935c-4.5,0-7.8,3.3-7.8,7.4v8.5c0,2.2,0.7,4.8,1.9,7.4c0.7,1.9,2.2,3.3,4.5,5.2c2.2,1.5,4.5,3,7.1,3.7
		s5.6,1.5,9.3,1.9s7.4,0.4,10.4,0.4c5.6,0,10.4-0.4,14.1-1.5c3-0.7,5.6-1.9,8.2-3.7c2.6-1.9,4.5-3.7,5.6-5.9
		c1.1-2.2,1.9-4.8,1.9-7.4v-8.2c0-4.1-3.3-7.4-7.8-7.4h-4.5c-4.5,0-7.8,3.3-7.8,7.4v2.2H969.6z"/>
</g>
<g>
	<path class="st5" d="M135.5,366.7h17.3c0.7,0,1.4,0.4,1.7,1l9.1,15c0.8,1.3,2.7,1.3,3.5,0l8.8-15c0.4-0.6,1-1,1.8-1h16.9
		c1.6,0,2.6,1.8,1.7,3.2l-17.4,25.3c-0.5,0.7-0.5,1.6,0,2.3l19.2,27.2c1,1.4,0,3.2-1.7,3.2h-17.6c-0.7,0-1.3-0.3-1.7-0.9l-10.7-16.2
		c-0.8-1.2-2.6-1.2-3.4,0L152.3,427c-0.4,0.6-1,0.9-1.7,0.9h-17.6c-1.7,0-2.6-1.9-1.7-3.2l19.5-27.6c0.5-0.7,0.5-1.6,0-2.3l-17.1-25
		C132.9,368.5,133.8,366.7,135.5,366.7z"/>
	<path class="st5" d="M240.6,364.6h16.3c1.1,0,2,0.9,2,2v57.2c0,1.1-0.9,2-2,2h-16.3c-1.1,0-2-0.9-2-2v-57.2
		C238.5,365.5,239.4,364.6,240.6,364.6z"/>
	<path class="st5" d="M342.8,415.8h-20c-0.9,0-1.7,0.6-1.9,1.4l-2.4,7.2c-0.3,0.8-1.1,1.4-1.9,1.4h-16.3c-1.4,0-2.4-1.5-1.9-2.8
		l22.9-57.2c0.3-0.8,1.1-1.3,1.9-1.3h19.1c0.8,0,1.6,0.5,1.9,1.3L367,423c0.5,1.3-0.5,2.8-1.9,2.8h-16.6c-0.9,0-1.7-0.6-2-1.5
		l-1.8-7C344.5,416.4,343.7,415.8,342.8,415.8z M339.4,399.8l-4.3-13.2c-0.6-1.9-3.3-1.9-3.9,0l-4.3,13.2c-0.4,1.3,0.6,2.7,1.9,2.7
		h8.5C338.8,402.4,339.8,401.1,339.4,399.8z"/>
	<path class="st5" d="M403.4,395.4c0-10,3-17.8,8.9-23.4s14.1-8.2,24.9-8.2c10.8,0,19.3,2.6,25.2,8.2c5.9,5.6,8.9,13,8.9,23
		c0,7.1-1.1,13-3.7,17.5c-2.6,4.5-6.3,8.2-11.1,10.8c-4.8,2.6-10.8,3.7-18.2,3.7s-13.4-1.1-18.2-3.3c-4.8-2.2-8.9-5.6-11.9-10.4
		C404.9,408.4,403.4,402.4,403.4,395.4z M423.4,395.4c0,6.3,1.1,10.8,3.7,13.4c2.6,2.6,5.9,4.1,10,4.1c4.5,0,7.8-1.5,10-4.1
		s3.7-7.4,3.7-14.1c0-5.9-1.1-10-3.7-12.6c-2.6-2.6-5.9-4.1-10-4.1c-4.1,0-7.4,1.5-9.7,4.1C424.5,384.6,423.4,389.1,423.4,395.4z"/>
	<path class="st5" d="M542.4,364.6h17.3c0.7,0,1.4,0.4,1.7,1l9.1,15c0.8,1.3,2.7,1.3,3.5,0l8.8-15c0.4-0.6,1-1,1.8-1h16.9
		c1.6,0,2.6,1.8,1.7,3.2l-18.2,26.5l20,28.3c1,1.4,0,3.2-1.7,3.2h-17.6c-0.7,0-1.3-0.3-1.7-0.9l-10.7-16.2c-0.8-1.2-2.6-1.2-3.4,0
		l-10.7,16.2c-0.4,0.6-1,0.9-1.7,0.9h-17.6c-1.7,0-2.6-1.9-1.7-3.2l19.5-27.6c0.5-0.7,0.5-1.6,0-2.3l-17.1-25
		C539.8,366.4,540.7,364.6,542.4,364.6z"/>
	<path class="st5" d="M647.5,364.6h16.3c1.1,0,2,0.9,2,2v57.2c0,1.1-0.9,2-2,2h-16.3c-1.1,0-2-0.9-2-2v-57.2
		C645.5,365.5,646.4,364.6,647.5,364.6z"/>
	<path class="st5" d="M713.2,364.6h15.9c0.7,0,1.3,0.3,1.6,0.8l20.2,27.9c1.2,1.6,3.7,0.8,3.7-1.2v-25.5c0-1.1,0.9-2,2-2h14.9
		c1.1,0,2,0.9,2,2v57.2c0,1.1-0.9,2-2,2h-15.9c-0.6,0-1.3-0.3-1.6-0.8l-20.2-27.6c-1.2-1.6-3.7-0.8-3.7,1.2v25.2c0,1.1-0.9,2-2,2
		h-14.9c-1.1,0-2-0.9-2-2v-57.2C711.2,365.5,712.1,364.6,713.2,364.6z"/>
	<path class="st5" d="M815,364.6h17.6c0.7,0,1.3,0.4,1.7,0.9l11.1,17.2c0.8,1.2,2.6,1.2,3.4,0l11.1-17.2c0.4-0.6,1-0.9,1.7-0.9h17.2
		c1.7,0,2.6,1.9,1.7,3.2l-22.9,31.9c-0.2,0.3-0.4,0.8-0.4,1.2v22.9c0,1.1-0.9,2-2,2h-16.3c-1.1,0-2-0.9-2-2v-22.9
		c0-0.4-0.1-0.8-0.4-1.2l-22.9-31.9C812.4,366.4,813.4,364.6,815,364.6z"/>
	<path class="st5" d="M933.9,364.6h-8.2c-1.5,0-3,0.7-4.1,1.9c-1.1,1.1-1.9,3-1.9,4.8v4.1c0,3.7,2.6,6.7,5.9,6.7h8.2
		c3.3,0,5.9-3,5.9-6.7v-4.1C939.9,367.5,936.9,364.6,933.9,364.6z"/>
	<path class="st5" d="M962.2,371.3v4.1c0,3.7,2.6,6.7,5.9,6.7h8.2c3.3,0,5.9-3,5.9-6.7v-4.5c0-3.7-2.6-6.7-5.9-6.7h-8.2
		C964.8,364.6,962.2,367.5,962.2,371.3z"/>
	<path class="st5" d="M962.2,402.1c0,3.3-1.1,5.9-3,7.8c-1.9,1.9-4.8,2.6-8.2,2.6c-3.3,0-6.3-1.1-8.2-3s-3-4.5-3-7.8v-2.2
		c0-4.1-3.3-7.4-7.8-7.4h-4.5c-4.5,0-7.8,3.3-7.8,7.4v8.5c0,2.2,0.7,4.8,1.9,7.4c0.7,1.9,2.2,3.3,4.5,5.2c2.2,1.5,4.5,3,7.1,3.7
		s5.6,1.5,9.3,1.9s7.4,0.4,10.4,0.4c5.6,0,10.4-0.4,14.1-1.5c3-0.7,5.6-1.9,8.2-3.7s4.5-3.7,5.6-5.9c1.1-2.2,1.9-4.8,1.9-7.4v-8.2
		c0-4.1-3.3-7.4-7.8-7.4h-4.5c-4.5,0-7.8,3.3-7.8,7.4v2.2H962.2z"/>
</g>
</svg>
