<?xml version="1.0" encoding="utf-8"?>
<!-- Generator: Adobe Illustrator 19.0.0, SVG Export Plug-In . SVG Version: 6.00 Build 0)  -->
<svg version="1.1" id="Layer_1" xmlns="http://www.w3.org/2000/svg" xmlns:xlink="http://www.w3.org/1999/xlink" x="0px" y="0px"
	 viewBox="-185 388 240 18" style="enable-background:new -185 388 240 18;" xml:space="preserve">
<style type="text/css">
	.st0{fill:#6F778A;}
</style>
<g>
	<path class="st0" d="M-179.2,388.7h6l3.1,5.1l3-5.1h5.9l-5.5,8l6,8.5h-6.1l-3.5-5.3l-3.5,5.3h-6.1l6.1-8.6L-179.2,388.7z"/>
	<path class="st0" d="M-150.4,388.7h5.5v16.5h-5.5V388.7z"/>
	<path class="st0" d="M-121.9,402.5h-6.2l-0.9,2.7h-5.6l6.6-16.5h5.9l6.6,16.5h-5.7L-121.9,402.5z M-123,398.9l-1.9-5.9l-1.9,5.9
		H-123z"/>
	<path class="st0" d="M-106,397c0-2.7,0.8-4.8,2.4-6.3s3.8-2.2,6.7-2.2c2.9,0,5.2,0.7,6.8,2.2c1.6,1.5,2.4,3.5,2.4,6.2
		c0,1.9-0.3,3.5-1,4.7s-1.7,2.2-3,2.9c-1.3,0.7-2.9,1-4.9,1s-3.6-0.3-4.9-0.9c-1.3-0.6-2.4-1.5-3.2-2.8
		C-105.6,400.5-106,398.9-106,397z M-100.6,397c0,1.7,0.3,2.9,1,3.6s1.6,1.1,2.7,1.1c1.2,0,2.1-0.4,2.7-1.1s1-2,1-3.8
		c0-1.6-0.3-2.7-1-3.4c-0.7-0.7-1.6-1.1-2.7-1.1s-2,0.4-2.6,1.1C-100.3,394.1-100.6,395.3-100.6,397z"/>
	<path class="st0" d="M-69.6,388.7h6l3.1,5.1l3-5.1h5.9l-5.5,8l6,8.5h-6.1l-3.5-5.3l-3.5,5.3h-6.1l6.1-8.6L-69.6,388.7z"/>
	<path class="st0" d="M-40.8,388.7h5.5v16.5h-5.5V388.7z"/>
	<path class="st0" d="M-23.1,388.7h5.1l6.6,9.1v-9.1h5.1v16.5h-5.1l-6.6-9v9h-5.1V388.7z"/>
	<path class="st0" d="M3.8,388.7h6.1l3.6,5.6l3.6-5.6h6l-6.9,9.6v6.9h-5.5v-6.9L3.8,388.7z"/>
	<path class="st0" d="M36.9,388.7h-2.2c-0.4,0-0.8,0.2-1.1,0.5s-0.5,0.8-0.5,1.3v1.1c0,1,0.7,1.8,1.6,1.8h2.2c0.9,0,1.6-0.8,1.6-1.8
		v-1.1C38.5,389.5,37.7,388.7,36.9,388.7z"/>
	<path class="st0" d="M44.5,390.5v1.1c0,1,0.7,1.8,1.6,1.8h2.2c0.9,0,1.6-0.8,1.6-1.8v-1.2c0-1-0.7-1.8-1.6-1.8h-2.2
		C45.2,388.7,44.5,389.5,44.5,390.5z"/>
	<path class="st0" d="M44.5,398.8c0,0.9-0.3,1.6-0.8,2.1s-1.3,0.7-2.2,0.7s-1.7-0.3-2.2-0.8s-0.8-1.2-0.8-2.1v-0.6
		c0-1.1-0.9-2-2.1-2h-1.2c-1.2,0-2.1,0.9-2.1,2v2.3c0,0.6,0.2,1.3,0.5,2c0.2,0.5,0.6,0.9,1.2,1.4c0.6,0.4,1.2,0.8,1.9,1
		s1.5,0.4,2.5,0.5c1,0.1,2,0.1,2.8,0.1c1.5,0,2.8-0.1,3.8-0.4c0.8-0.2,1.5-0.5,2.2-1s1.2-1,1.5-1.6c0.3-0.6,0.5-1.3,0.5-2v-2.2
		c0-1.1-0.9-2-2.1-2h-1.2c-1.2,0-2.1,0.9-2.1,2v0.6H44.5z"/>
</g>
</svg>
